<?xml version="1.0" encoding="iso-8859-1"?>
<!-- Generator: Adobe Illustrator 19.0.0, SVG Export Plug-In . SVG Version: 6.00 Build 0)  -->
<svg xmlns="http://www.w3.org/2000/svg" xmlns:xlink="http://www.w3.org/1999/xlink" version="1.1" id="Layer_1" x="0px" y="0px" viewBox="0 0 512 512" style="enable-background:new 0 0 512 512;" xml:space="preserve" width="512px" height="512px">
<g>
	<g>
		<path d="M409.043,77.913c-9.206,0-16.696,7.49-16.696,16.696s7.49,16.696,16.696,16.696c9.206,0,16.696-7.49,16.696-16.696    S418.249,77.913,409.043,77.913z" fill="#ababab"/>
	</g>
</g>
<g>
	<g>
		<rect x="69.565" y="450.783" width="211.478" height="61.217" fill="#ababab"/>
	</g>
</g>
<g>
	<g>
		<path d="M69.565,0v77.913c0,21.481,17.476,38.957,38.956,38.957h205.913V512h189.217V0H69.565z M364.522,450.783    c-9.22,0-16.696-7.475-16.696-16.696c0-9.22,7.475-16.696,16.696-16.696s16.696,7.475,16.696,16.696    C381.217,443.307,373.742,450.783,364.522,450.783z M364.522,384c-9.22,0-16.696-7.475-16.696-16.696    c0-9.22,7.475-16.696,16.696-16.696s16.696,7.475,16.696,16.696C381.217,376.525,373.742,384,364.522,384z M409.043,144.696    c-27.618,0-50.087-22.469-50.087-50.087c0-27.618,22.469-50.087,50.087-50.087c27.618,0,50.087,22.469,50.087,50.087    C459.13,122.227,436.661,144.696,409.043,144.696z" fill="#ababab"/>
	</g>
</g>
<g>
	<g>
		<path d="M41.739,289.391v16.696c0,46.03,37.448,83.478,83.478,83.478h5.159c12.859,16.905,33.18,27.826,56.058,27.826    c38.881,0,70.4-31.519,70.4-70.4v-57.6H41.739z M77.991,322.783h38.044v24.209c0,2.853,0.189,5.66,0.519,8.423    C98.628,352.275,83.947,339.58,77.991,322.783z" fill="#ababab"/>
	</g>
</g>
<g>
	<g>
		<polygon points="108.522,150.261 108.522,189.217 8.348,189.217 8.348,222.609 169.739,222.609 169.739,256 203.13,256     203.13,222.609 264.348,222.609 264.348,150.261   " fill="#ababab"/>
	</g>
</g>
<g>
</g>
<g>
</g>
<g>
</g>
<g>
</g>
<g>
</g>
<g>
</g>
<g>
</g>
<g>
</g>
<g>
</g>
<g>
</g>
<g>
</g>
<g>
</g>
<g>
</g>
<g>
</g>
<g>
</g>
</svg>
