<?xml version="1.0" encoding="utf-8"?>
<!-- Generator: Adobe Illustrator 21.1.0, SVG Export Plug-In . SVG Version: 6.00 Build 0)  -->
<svg version="1.1" id="Layer_1" xmlns="http://www.w3.org/2000/svg" xmlns:xlink="http://www.w3.org/1999/xlink" x="0px" y="0px"
	 viewBox="0 0 24 24" style="enable-background:new 0 0 24 24;" xml:space="preserve">
<style type="text/css">
	.st0{fill:none;}
	.st1{fill:#B70EE0;}
</style>
<path class="st0" d="M24,0H0v24h24V0z M24,0H0v24h24V0z M0,24h24V0H0V24z"/>
<path class="st1" d="M17.7,8L12,2.3L6.3,8C4.8,9.6,4,11.6,4,13.6s0.8,4.1,2.3,5.7s3.6,2.4,5.7,2.4s4.1-0.8,5.7-2.4s2.3-3.7,2.3-5.7
	S19.2,9.6,17.7,8z M6,14c0-2,0.6-3.3,1.8-4.4L12,5.3l4.2,4.4C17.4,10.8,18,12,18,14H6z"/>
</svg>
