<svg id="Layer_1" data-name="Layer 1" xmlns="http://www.w3.org/2000/svg" viewBox="0 0 225 225"><defs><style>.cls-1{fill:#f9993c;}</style></defs><title>blog-icon</title><path class="cls-1" d="M420,500v9H375c-1-10.41-1.19-21-3-31.22C356.86,392,281.89,329.08,195,329V284h12a39.17,39.17,0,0,0,4.39.79c26,1.76,51,7.72,74.47,18.84,71.11,33.64,115,88.89,130.3,166.28C418.11,479.81,418.75,490,420,500Z" transform="translate(-195 -284)"/><path class="cls-1" d="M344,509H300c.06-1.48.24-3,.17-4.45-1.83-42.52-28.84-80-69.23-94.29-11.41-4-23.93-4.93-35.94-7.26V360C276.6,359.87,343.9,427.17,344,509Z" transform="translate(-195 -284)"/><path class="cls-1" d="M195,473c1.79-4.05,3.08-8.43,5.46-12.1a30.2,30.2,0,0,1,34.61-12.06,30.85,30.85,0,0,1,21.59,30.21,31.23,31.23,0,0,1-22.88,28.85c-1.26.34-2.51.73-3.77,1.1h-9c-6.77-2.17-13.78-4.33-18-10.46-3.27-4.78-5.4-10.33-8-15.54Z" transform="translate(-195 -284)"/></svg>