<svg id="Layer_1" data-name="Layer 1" xmlns="http://www.w3.org/2000/svg" viewBox="0 0 220.37 220.44"><defs><style>.cls-1{fill:#9d9d9d;}</style></defs><title>social-media-icon</title><path class="cls-1" d="M247.8,499.68,157,453.44c-10.58,11.49-23.09,15.88-38,11.15-13.61-4.3-22.49-16.25-23.48-31-.9-13.28,6.82-26.3,19.21-32.43,12.14-6,27.2-4.27,37.3,4.85,2.79,2.52,4.67,2.44,7.74.93,28-13.74,56.18-27.32,84.28-41,1.18-.57,2.33-1.23,3.46-1.83-2.94-18.6,5.66-36.1,26-41.32,16.33-4.19,33.16,4.69,39.65,20.21A34.33,34.33,0,0,1,300,385.15c-13.48,8.57-32.73,8-46.52-8.64l-90.15,43.75c0,6.68-.11,12.9.11,19.1a4.61,4.61,0,0,0,2.31,3.13c29.12,14.95,58.29,29.8,87.89,44.89,7.52-9.23,17.18-14.32,29.33-13.85a33.6,33.6,0,0,1,21.31,8.61c12,10.51,14.92,28.8,6.91,42.82a34.61,34.61,0,0,1-41,15.42C253.68,534.62,245.15,519.36,247.8,499.68Zm-118.18-88.2a20.32,20.32,0,0,0-20.46,20.63c.07,11.78,9.17,20.6,21.12,20.48a20.56,20.56,0,1,0-.65-41.11Zm172.53,96.35a20.73,20.73,0,1,0-20.57,20.71A20.75,20.75,0,0,0,302.15,507.83ZM281.27,335.56a20.71,20.71,0,1,0,20.88,20.89A20.68,20.68,0,0,0,281.27,335.56Z" transform="translate(-95.42 -321.79)"/></svg>