<svg id="Layer_1" data-name="Layer 1" xmlns="http://www.w3.org/2000/svg" viewBox="0 0 222.28 182.89"><defs><style>.cls-1{fill:#00aced;}</style></defs><title>twitter-icon</title><path class="cls-1" d="M261,318.31C240,316,225.93,306,218.14,286.16H237c-21.61-8.07-33.49-22.87-35.21-45.83L221,245.69c-19.07-17.81-23.36-37.93-12.75-62.22,25.28,29.51,56.64,45.72,95.25,48.44-1.1-9.56-1.23-18.52,2.18-27.32,11.55-29.76,49.78-39.16,73.49-17.76,2.61,2.36,4.9,3,7.9,1.91,7.9-2.87,15.78-5.81,23.88-8.8-3.08,9.81-9.7,17.14-17.74,24.09,3.86-.85,7.76-1.57,11.58-2.59s7.56-2.35,11.33-3.55l1.06,1.12c-5.93,6-11.53,12.43-17.94,17.89-3.32,2.83-4.38,5.48-4.36,9.61.25,56.1-35.9,107.35-89,124.64-37.47,12.2-73.83,8.23-108.28-11.28a19,19,0,0,1-1.69-1.05,8.84,8.84,0,0,1-1-1.2C219.14,339.22,240.9,333.36,261,318.31Z" transform="translate(-194.86 -175.2)"/></svg>