<svg id="Layer_1" data-name="Layer 1" xmlns="http://www.w3.org/2000/svg" viewBox="0 0 1600 1067"><defs><style>.cls-1{fill:#fff;}</style></defs><title>bones</title><path d="M201,1284V217H1801V1284ZM865.88,606.44c.84-9.66,1.94-18.67,2.26-27.71.14-4-1.74-8.09-2-12.17-.35-6.65.08-13.33-.13-20-.27-8.53.15-16.82,4.35-24.6,2.21-4.1,3.66-8.61,5.69-12.83,3-6.26,7-12.16,9.19-18.69a65.14,65.14,0,0,1,11.09-20.69c2.62-3.25,6.69-5.34,10.16-7.87a25.47,25.47,0,0,1,3.36-1.76c.25,1.56,1.16,3.41.62,4.63-2.14,4.9-5.11,9.46-7.08,14.42-2.92,7.34-5.2,14.94-7.85,22.39-2.17,6.07-3,13.51-7.13,17.75-4.59,4.72-5.39,10.4-7.42,15.55-2.2,5.54-2.15,12.16-2.23,18.32-.25,18.83,0,37.66-.21,56.49a11.91,11.91,0,0,1-2.66,6.93c-3.59,4.31-8.6,6.75-13.88,8.45-7.78,2.52-13.69,14.76-9.77,21.44,3.53,6,6.64,12.45,13.05,16.25,3,1.81,5.59,4.63,8.79,6,6.29,2.64,12.92,4.46,19.34,6.83,5.31,2,10.58,4.05,15.73,6.39a33.07,33.07,0,0,1,8,4.89c5.83,5.06,9.83,11.58,14.13,18,7.41,11,18.86,16.82,31.28,19.67,8.8,2,18.15,1.68,27.27,2.22,4,.24,8-.1,12,.11,2,.11,3.89.88,6.33,1.48a15.15,15.15,0,0,1,4.14-1.47c7.62-.7,15.24-.6,22.94-1.54a51.28,51.28,0,0,0,25.21-10.57c5.92-4.48,11.62-10.45,14.77-17,3.08-6.41,8.61-8.24,13.32-11.73a31.19,31.19,0,0,1,8.4-4c5.58-1.91,11.6-2.79,16.85-5.33,8.43-4.09,16.56-8.84,22.38-16.73,3.07-4.16,8.77-6.73,7.21-13.37-.09-.35.37-.84.63-1.23,2.12-3.29,1.62-9.23-1.46-10.88a129.52,129.52,0,0,0-15.68-7.16c-6.12-2.3-10.52-7.55-10.11-14.18.63-10.29-1.49-20.61,1.64-30.95,2-6.52,1.62-13.75,2.37-21.24,1.67.29,3.61.12,3.92.75,1.38,2.83,3,5.83,3.27,8.88,1,11.57,1.47,23.19,2.16,34.79.06,1,.22,1.91.36,3.11,1.21,0,2.31.3,3.12-.05,9.89-4.26,13.84-12.83,16-22.57a83.39,83.39,0,0,0,2-11.8c.71-9.33,1.4-18.74,1.92-28,.89-15.86,2.53-32-1.32-48.13-1.67-7-3.58-14.09-4.87-21.26-.52-2.9-2-5.66-3.1-8.43-2.71-6.62-7.47-11.93-11.28-17.84-5.38-8.33-10.3-16.91-18-23.25-5.71-4.67-11.76-8.93-17.81-13.16a174.91,174.91,0,0,0-15.93-10.28c-3.65-2-8.55-2.09-11.71-4.55-7.37-5.72-16.38-6.43-24.62-7.87-12.83-2.25-26.14-2-39.26-2.33-3.89-.11-7.8,1.58-11.75,1.82-5.64.36-11.38-.35-17,.29-8.22.93-16.32,3.57-24.51,3.77s-15.12,3.37-22.18,6.2c-7.87,3.16-15.33,7.44-22.68,11.73-4.21,2.45-7.94,5.77-11.7,8.91a46.32,46.32,0,0,0-4.8,5.35c-4.91,5.62-9.37,11.74-14.85,16.74-6.1,5.55-10.34,12.19-14.12,19.27-1.17,2.19-1.52,4.8-2.48,7.12-2.54,6.15-5.59,12.12-7.71,18.41-1.41,4.19-1.51,8.82-2.35,13.23-1.4,7.43-4,14.81-4.12,22.24-.1,8.76-2.07,17.65,2,26.53,2.38,5.17,2.09,11.77,2.17,17.74a38.67,38.67,0,0,0,4.24,18c3.22,6.19,5.46,12.88,8.36,19.24C862.51,606.12,864.38,606.07,865.88,606.44ZM511.8,480c-1.71,2.26-3.55,3.58-3.6,5a134.26,134.26,0,0,0,.21,19.45c.65,6.09,2.36,12.08,3.78,18.07a89.23,89.23,0,0,0,3.22,10.79c1.57,4.15,4.19,8,5.23,12.25,2.38,9.77,6.54,18.75,11,27.64,5.28,10.54,10.52,21.13,16.28,31.42,5.26,9.4,11.07,18.51,16.89,27.58,2.2,3.43,5.3,6.27,7.65,9.62,4.41,6.29,8.58,12.75,12.83,19.15.79,1.19,1.51,2.42,2.28,3.62,3.88,6,7.64,12.18,11.7,18.1,2.66,3.86,5.75,7.43,8.67,11.12q7.93,10,15.91,20c.28.35.85.49,1.13.86,5.15,6.74,9.94,13.8,15.53,20.16s11.92,11.82,17.87,17.75c4.7,4.68,9.41,9.36,13.91,14.22,1.88,2,2.92,4.9,4.92,6.77,2.95,2.76,6.47,4.92,9.65,7.45,1.21,1,2,2.66,3.28,3.34,8.51,4.4,14,12.51,21.74,17.81,3.78,2.58,6.58,6.55,10.12,9.53,3,2.56,6.78,4.33,9.77,6.94,7.54,6.57,14.67,13.61,22.27,20.1,7.34,6.27,15,12.18,22.65,18,4.5,3.44,9.23,6.58,14,9.68,8,5.23,16.06,10.27,24,15.47,6.12,4,12.12,8.13,18.25,12.09,1.15.74,2.82.67,4,1.41,4.15,2.62,8.19,5.42,12.27,8.17,2,1.38,4.08,2.79,6.11,4.19,4,2.75,7.85,5.78,12,8.19,7.31,4.2,14.84,8,22.25,12,6.16,3.34,12.26,6.79,18.42,10.12s12.31,6.69,18.58,9.79c5.15,2.55,10.49,4.7,15.73,7.08,4.19,1.91,8.31,4,12.54,5.83,5.7,2.46,11.46,4.76,17.21,7.12,5.18,2.12,10.47,4,15.54,6.38,5.47,2.56,10.59,5.89,16.12,8.28,8.84,3.82,17.88,7.18,26.87,10.66,4.1,1.58,8.26,3,12.43,4.43,4.88,1.65,9.82,3.09,14.68,4.78,5.52,1.91,10.93,4.16,16.49,5.95,3.75,1.2,7.68,1.87,11.53,2.76,2.62.62,5.28,1.1,7.86,1.84,7.06,2,14,4.37,21.15,6.21,4.45,1.16,9.08,1.64,13.63,2.43,3.81.66,7.72,1,11.42,2.06,6.83,2,13.44,4.75,20.34,6.36,5.9,1.37,12.08,1.58,18.14,2.3.82.1,1.66.11,2.48.24,4.58.71,9.16,1.45,13.88,2.2,0-6.36-9.06-18.39-14-19.91-7.28-2.23-14.6-4.34-21.81-6.78-8.64-2.92-17.22-6-25.75-9.27-6.41-2.43-12.68-5.22-19-7.77-2.6-1-5.37-1.69-7.93-2.81-6-2.6-11.81-5.46-17.77-8-4.9-2.12-9.94-3.93-14.86-6-3.41-1.45-6.63-3.37-10.09-4.68-8.59-3.24-17.36-6-25.91-9.4-9.85-3.89-19.63-8-29.24-12.44-5.48-2.54-10.64-5.21-16.77-6.62-7-1.6-13.28-6-19.86-9.28-7.22-3.57-14.4-7.21-21.63-10.76-5.15-2.53-10.37-4.93-15.53-7.45-2.93-1.44-5.78-3-8.69-4.52-6.38-3.27-12.9-6.31-19.13-9.85-6-3.43-11.76-7.4-17.67-11.05-7.4-4.58-14.94-8.94-22.25-13.66-2.48-1.61-4.27-4.26-6.66-6.06-5.22-3.92-10.63-7.59-16-11.38-.78-.55-1.51-1.18-2.3-1.71-3.89-2.65-8.07-5-11.65-8-7.81-6.6-15.37-13.5-22.92-20.4-2.29-2.09-4.24-4.57-6.34-6.88.29-.55.58-1.1.88-1.65,4.49,1.45,9.2,2.43,13.42,4.44a49.69,49.69,0,0,1,17.16,12.82,26.48,26.48,0,0,0,5.43,4.8c8,5.42,16.13,10.64,24.14,16,6.24,4.2,12.33,8.61,18.57,12.81s12.14,8.49,18.57,12.07c8.64,4.8,17.66,8.92,26.47,13.4,8.29,4.21,16.49,8.59,24.8,12.75,5.66,2.83,11.46,5.38,17.18,8.08,6.54,3.09,13,6.28,19.63,9.29,4.46,2.05,9,3.81,13.54,5.79,10.08,4.44,20.12,9,30.23,13.39,3.92,1.71,8.08,2.89,11.94,4.72,3.6,1.71,6.78,4.39,10.45,5.88,6.15,2.49,12.57,4.31,18.82,6.56,1.42.51,2.53,1.87,4,2.4,4.7,1.78,9.49,3.34,14.23,5,2.22.78,4.45,1.51,6.6,2.45,5.6,2.47,11.08,5.22,16.76,7.49,4.68,1.88,9.59,3.15,14.36,4.82,5.68,2,11.27,4.26,17,6.11a91.83,91.83,0,0,0,9.81,2.07c6.71,1.37,13.37,3.52,20.13,3.88s13.7,1.57,20.42-1.66c4-1.92,8.82-2.07,12.9-3.86,7.06-3.09,13.83-6.84,21.58-10.74-3.37-2-6.12-4.57-9.31-5.33a126.34,126.34,0,0,0-12.64-2,179.15,179.15,0,0,1-22.69-4.47c-3.69-1-7.53-1.47-11.16-2.62-8.24-2.6-16.39-5.48-24.58-8.21-2.39-.8-4.78-1.61-7.23-2.22-6.17-1.52-12.45-2.67-18.56-4.44-6.41-1.85-12.64-4.33-19-6.37-6.12-2-12.35-3.58-18.43-5.65-4.23-1.44-8.19-3.67-12.43-5-5.48-1.79-11.14-3-16.68-4.63a60.7,60.7,0,0,1-7.08-2.71c-5.82-2.54-11.58-5.24-17.43-7.73-7.82-3.32-15.73-6.45-23.57-9.76-5.61-2.36-11.31-4.58-16.67-7.44-3.36-1.79-8.15-1.12-10.08-5.56-.19-.45-1-.66-1.61-.89-10.76-4.44-21.71-8.46-32.24-13.41-8.47-4-16.44-9.05-24.61-13.67-1.91-1.08-3.75-2.27-5.59-3.45-3.37-2.14-6.68-4.36-10.08-6.44-6-3.68-12.2-7.11-18.1-11s-11.16-8.07-16.89-11.89c-6.24-4.17-12.91-7.74-19-12.13-7-5.07-13.52-10.8-20.31-16.16-6.43-5.08-13-10-19.42-15.08q-9.27-7.27-18.47-14.67c-4.41-3.57-8.59-7.44-13.13-10.83-4.71-3.51-9.86-6.43-14.58-9.92-6.5-4.81-13.12-9.54-19.07-15C742.3,734.26,735.24,728.46,727,724c-2.34-1.28-3.42-4.9-5.77-6.11a70.37,70.37,0,0,1-20.53-16.08c-12-13.63-26.58-24.68-37.43-39.58-7-9.65-16.86-17.26-25.27-25.93-10.78-11.11-21.39-22.37-32.07-33.57a18,18,0,0,1-1.6-1.78c-4.84-6.58-9.3-13.48-14.57-19.68-7.64-9-15.87-17.46-23.83-26.16s-16.13-17-23.6-26c-5.3-6.39-9.71-13.55-14.27-20.53s-8.76-13.9-13-20.95C513.87,485.53,513.14,483.14,511.8,480Zm983.94,10.12-1.5-.32c-1.69,1.86-3.55,3.6-5,5.61-3.12,4.22-6,8.61-9.07,12.9-3.66,5.17-7.15,10.48-11.1,15.43-6.51,8.16-13.29,16.11-20,24.09-5.24,6.21-10.57,12.33-15.85,18.51-2.57,3-5.05,6.09-7.65,9.06q-10.39,11.83-20.88,23.59c-.41.46-1.46.62-1.56,1.07-2,8.81-11,12.28-14.9,20.24-3.51,7.12-11.34,12.43-16.69,19.22-7.71,9.79-16.56,18.75-25.5,27.48s-16.52,18.84-27.52,25.6c-6.35,3.9-11.29,10.07-17,15-3.49,3-7.45,5.44-11,8.41-5.28,4.45-10.3,9.22-15.55,13.71a73,73,0,0,1-9.31,7.08c-5.87,3.58-11.83,6.87-17,11.59s-10.9,8.37-16.38,12.51c-6.37,4.83-12.7,9.71-19.12,14.48-1.39,1-3.16,1.54-4.57,2.54-5,3.59-10,7.33-15,10.94-2.4,1.73-5,3.15-7.36,5-6.07,4.68-11.84,9.79-18.1,14.19-6,4.18-12.57,7.45-18.61,11.55-7.86,5.34-15.27,11.36-23.2,16.6-5.15,3.4-11.88,4.91-16.14,9.07-7.39,7.22-17.29,9.23-25.61,14.4-9.47,5.89-20.44,9.34-30.63,14.12-10,4.67-19.76,9.71-29.65,14.52-3.11,1.52-6.33,2.83-10.4,4.63,3.77,2.59,6.31,4.66,9.14,6.2,3,1.64,6.26,2.77,9.4,4.15,5,2.18,9.38,6.48,15.67,2.15,3.55-2.44,9-2.32,12.19-5,6.64-5.73,14.91-8.37,22-13.19,5-3.41,10.14-6.65,15.43-9.58,6-3.3,12.21-6.13,18.29-9.24,3.92-2,7.84-4,11.62-6.24,2-1.19,3.58-3.11,5.57-4.32,5.77-3.52,11.71-6.76,17.47-10.29,3.42-2.08,6.54-4.64,10-6.72a128.78,128.78,0,0,1,12.72-7.1c3.88-1.81,8.07-3,12.13-4.4l1.2,1.71c-1.52,2.63-2.46,6-4.66,7.77-6,4.86-9.41,12.33-17.39,15.3-4.87,1.8-8.76,6.12-13.32,8.95-4.34,2.69-9,4.82-13.46,7.37-3.45,2-6.77,4.2-10.11,6.37-4.56,3-9,6.18-13.66,8.93-5.72,3.35-11.68,6.31-17.52,9.47-7.22,3.91-14.51,7.69-21.58,11.85-3.71,2.18-7,5.06-11.54,8.39,2.51.4,3.68.34,4.62.78,4.3,2,8.45,4.29,12.81,6.1s8.69,3.21,13.11,4.56c3.15,1,6.58,2.53,9.61,2.06,5-.78,9.92-2.76,14.68-4.7,1.73-.71,2.71-3.09,4.39-4.12,3.19-1.94,6.77-3.26,10-5.2,6.13-3.71,12-7.81,18.18-11.5,6.65-4,13.6-7.51,20.2-11.58,5-3,9.52-6.7,14.33-10,5.92-4,11.92-7.93,17.89-11.88,6.22-4.1,12.55-8.05,18.64-12.33,5.64-4,10.88-8.49,16.59-12.32,6-4,12.63-7,18.36-11.26,9.21-6.86,17.9-14.42,26.8-21.68,3.65-3,7.27-6,10.94-8.93,7.77-6.23,13.44-14.56,22-20.2,6.86-4.49,11.77-11.88,17.86-17.66,6.89-6.55,14.16-12.69,21.2-19.09,2-1.85,3.78-4,5.75-6,10.22-10,20.89-19.5,29.26-31.28,5.69-8,10.34-16.86,18-23.38a8.15,8.15,0,0,0,1.22-2q6.27-10.06,12.54-20.12c3.13-5,6.43-10,9.32-15.13,2.69-4.8,4.86-9.89,7.41-14.76,3.34-6.36,6.93-12.59,10.23-19,2.17-4.19,3-9.6,6.23-12.59,6.09-5.69,7.24-13.86,12-20.14,2.52-3.34,3.34-8,5-12q4.05-9.91,8.21-19.78c1.3-3.07,2.88-6,4.09-9.12a119.94,119.94,0,0,0,4.5-12.8c1.1-4.17,1.43-8.54,2.29-12.78.7-3.41.88-7.29,2.7-10C1497.88,500.37,1495.53,495.3,1495.74,490.12ZM1102.46,711.78c-3.87.77-6,1-8,1.64-5.07,1.72-10.62,1.73-15,5.9-7.73,7.39-10,17.26-12.7,26.76-2.16,7.51-2.52,15.53-4.25,23.19-1.17,5.23-2.25,11-5.25,15.19-5.22,7.28-9.92,15.58-20,17.94-6.11,1.44-11.92,5.24-18,5.57-16,.87-32.15.85-48.09-2a3.85,3.85,0,0,1-.49-.08c-5.73-2.11-11.52-4.07-17.15-6.4-3.41-1.4-7.33-2.69-9.68-5.25a80.92,80.92,0,0,1-12.15-16.53,47.75,47.75,0,0,1-5.8-21.5c-.12-6.43-.11-12.79-1.41-19.36-1.36-6.88-4.69-12-8.51-17a40.66,40.66,0,0,0-12.27-10.35c-7.77-4.3-10-2.66-9.73,6.41.19,6.17,1.14,12.31,1.64,18.47,1.16,14.16-1.44,28.36,1.77,42.66,1.43,6.38,3.34,11.94,7,17s7.71,9.46,11.45,14.28c4.1,5.28,8,10.69,12.06,16,2.08,2.77,5.06,5.23,6.08,8.33,1.9,5.78,7.31,7.26,11.32,9.85,4.48,2.88,10.32,3.92,15.72,5,8.17,1.68,16.45,3.62,24.73,3.81,11,.24,21.95-1.17,32.93-1.71,4.66-.22,9.36.28,14-.14,3.42-.32,7.2-.87,10-2.63a140.45,140.45,0,0,0,16.79-12.48,77.69,77.69,0,0,0,11.55-12c4.68-6.2,8.78-12.86,12.88-19.47,3.17-5.09,7.12-10.1,8.63-15.71a69.12,69.12,0,0,0,2.17-22.19c-.73-10.76,3.73-20.32,5.16-30.53C1100.9,727,1101.59,719.44,1102.46,711.78Zm98.33,296.36c.67,2.15,1,5.84,2.8,8.61,5.25,8.21,9.94,16.46,8.35,26.69-.42,2.71-2.07,5.27-2.27,8-.37,4.89-3.51,8-6.54,11-4.82,4.78-10.44,8.77-15,13.73-4.33,4.69-10.11,5.84-15.52,7.18-9.14,2.25-17.66-2.1-26.32-4.38-3.16-.83-6.45-1.9-9.63-1.77-5.24.21-8.37,4.3-8.53,9.56-.19,6.53-.28,12.86,7.06,16.15,6.36,2.85,12.43,7.82,19,8.48,9.95,1,20.19-.92,30.3-1.62a4,4,0,0,0,1.39-.44c4.25-2.1,8.54-4.14,12.74-6.35,6-3.16,11.8-6.89,18-9.57,7.53-3.24,12.49-9.51,16.94-15.43,5.36-7.14,10.06-15.26,11.32-24.72,1-7.42,3-14.72,3.85-22.15.53-4.76,2-8.67,5.45-11.84,2.21-2,4.73-3.75,6.73-6a146.41,146.41,0,0,0,9.61-11.63c5.38-7.29,11.35-14.32,15.52-22.27,4.8-9.14,9.7-18.25,16.17-26.14,8-9.8,16.79-19.34,31.09-20.25.64-7.89-5.14-12.38-9.13-16.54s-9.71-8.15-16.7-7.46c-.63.06-1.3-.9-2-1.09-1.53-.42-3.32-1.27-4.64-.84a72.71,72.71,0,0,0-11.5,4.76c-10.86,5.8-18.71,14.4-22.94,26.07-1.72,4.75-3,9.68-4.94,14.32a127.66,127.66,0,0,1-6.77,13.29c-2.72,4.81-5,10.12-8.78,14-6.93,7.2-13.79,14.73-23.25,18.93C1215.79,1001.43,1209,1004.48,1200.79,1008.14Zm-548.17-95.7c7.5,3.14,14.27,4.52,19.06,8.37,5.89,4.72,10.26,11.39,15,17.45a60.9,60.9,0,0,1,7.15,11.15c3.22,6.76,5.56,14,8.83,20.69a65,65,0,0,0,8.41,13.36,90.31,90.31,0,0,0,14,14.07c9.72,7.46,13.14,17.18,12.59,28.9-.14,2.83-.6,5.87.21,8.46a186.14,186.14,0,0,0,6.77,17.72,60.5,60.5,0,0,0,14,20.38,165.32,165.32,0,0,0,18.35,14.55,73.32,73.32,0,0,0,14.27,7.83c4.46,1.83,9.67,1.91,14,3.86,10.11,4.51,19.93,1.24,29.37-1.23,5.21-1.36,9.61-6.31,14.06-10,5-4.16,4.71-12.51.55-17.25-5.94-6.77-13.46-4.44-20.29-3.67-10.24,1.17-19.71,3.16-29.83-2.75-8.88-5.19-14.13-13.13-19.93-20.52-3.74-4.77-4.55-11.9-6.39-18a10.82,10.82,0,0,1,.15-5.44c1.12-4.56,2.49-9.07,3.84-13.58.91-3,1.39-6.37,3.08-8.87,2-2.9.46-4.52-1.29-5.74a43.33,43.33,0,0,0-10.05-5.64c-11.46-4.09-20.58-11.74-29.57-19.4-5.71-4.87-10.37-11-15.48-16.55a6.89,6.89,0,0,1-1.49-2.22c-2.07-6.22-6.07-11.49-6.68-18.59s-4.3-13.58-6.09-20.49c-2.14-8.23-5.54-15.16-13.72-19a30.19,30.19,0,0,0-20.21-1.72c-8,1.95-14.22,8.15-19.3,14.67C654.05,905.76,653.61,909.65,652.62,912.44Zm320,69.53c-9.56-4.55-17.29-8.94-25.53-11.9-5.77-2.08-10.58-8.11-18-4.94-3.84,1.64-8.07,2.37-12.09,3.62-5.12,1.59-10.19,3.4-15.34,4.9-3.71,1.08-7.57,1.66-11.29,2.74-6.29,1.82-12.47,4.05-18.79,5.77-6.14,1.67-12.48,2.6-18.57,4.43s-11.71,5.18-17.83,6.36a210.23,210.23,0,0,0-23.79,6.14,44.63,44.63,0,0,0-20.67,13.15c-2.39,2.74-4.77,6.52-2.5,11.58,12.73-.75,25.54-1.18,38.28-2.4,5.76-.55,11.33-2.91,17.06-4,8.84-1.74,17.75-3.1,26.62-4.71,3.45-.63,6.89-1.35,10.27-2.28,4.19-1.15,8.25-2.77,12.46-3.78s8.4-1.38,12.57-2.23a91.32,91.32,0,0,0,9.52-2.52c3.8-1.24,7.44-3.08,11.29-4,4.35-1.08,8.94-1.17,13.28-2.24,3-.73,5.73-2.45,8.62-3.62,4.3-1.76,8.64-3.39,12.94-5.14C964.69,985.39,968.18,983.87,972.66,982ZM757,965.91c7,4.25,13.82,8.92,21.11,12.68,6.9,3.56,14.37,6.12,22.27,6.16,5.95,0,11.81.45,17.85-1.72,6.84-2.47,14.4-2.92,21.62-4.37a63.8,63.8,0,0,0,9.6-2.48c3-1.1,5.55-3.27,8.55-4.19,7.69-2.34,15.51-4.22,23.27-6.33,2.72-.74,5.44-1.53,8.11-2.46,3.87-1.35,7.65-3,11.53-4.24,3.34-1.1,6.79-1.89,10.18-2.82.22-.55.43-1.09.64-1.63-9.35-5.69-18.68-11.4-28.06-17-1.7-1-3.66-2.54-5.39-2.4-3,.23-6,1.54-8.9,2.46-8.68,2.69-17.28,5.66-26.05,8.05-7,1.9-14.16,3.16-21.27,4.58-7.36,1.47-14.74,2.89-22.14,4.11-5.71.94-11.47,1.52-17.2,2.27-.49.06-1,.19-1.46.3-5.24,1.23-10.43,2.92-15.74,3.53C762.07,960.76,759,960.72,757,965.91Zm-45.82,53.41c0-8.38,1.08-15.8-5.18-22.62a90.07,90.07,0,0,0-7.62-6.85c-8.83-7.69-19.35-10.82-30.58-11.46-5.88-.34-11.84,1.45-17.8,1.75-6.64.33-13.32.07-20,.07H612.21c.14,3.32-.42,6.21.5,8.49,3.07,7.57,6.14,15.22,10.23,22.24,3.39,5.82,8.27,10.92,16,10.6,15-.62,30.08-1.62,45.13-2.17C692.86,1019.06,701.68,1019.32,711.15,1019.32Zm559.58,16.23c4.12,1.08,7.65,2.74,11.22,2.82,18.66.45,37.36-.58,56,2.43,4.95.8,10.52,1.47,15.23-2.23,2.28-1.79,5.5-2.6,7.29-4.71,2.55-3,3.8-7.08,6.28-10.14,4.4-5.46,3.23-11.68,3.17-17.75a4.52,4.52,0,0,0-2.35-3.44c-3.94-1.33-8.09-3.12-12.1-3-17.23.49-34.44,1.61-51.66,2.48-1.83.09-3.82-.44-5.47.1-4.1,1.34-8.69,2.35-11.91,4.95a37.59,37.59,0,0,0-10.15,12.27C1273.78,1024.42,1268.51,1029,1270.73,1035.55ZM608.41,971.42c-4.39-1.41-8.44-3.32-12.68-3.9a52.3,52.3,0,0,0-14.94,0c-5,.78-10.62,1.76-14.39,4.69-6.85,5.31-10.34,13.35-11.29,22-.74,6.74-.47,13.62,2.69,19.83,2.05,4,4,8.66,7.4,11.3,4.55,3.57,10.33,5.62,15.69,8.11,6.17,2.87,16.51.47,21.05-4.68,7-7.9,8-19.76,3.13-29.36-2.31-4.55-3.54-9.64-5.17-14.52a2.48,2.48,0,0,1,.45-1.84C602.7,979.57,605.13,976.13,608.41,971.42ZM1427.14,1020c1.58-6.64-2.84-14-7.57-20.23-5.33-7-14.36-9.7-22.91-10.5-6.8-.64-13.83,1.12-20.75,1.94-.74.09-2,1-2,1.58a3.57,3.57,0,0,0,1.24,2.75c2.94,1.8,6.22,3.08,9,5,1.3.92,2.89,3.35,2.5,4.41-1.28,3.46-3.57,6.53-5.18,9.89-2.7,5.68-5.72,11.3-7.61,17.26-2.1,6.61,3.71,18.6,9.88,21.7,9.33,4.68,23.18,2.22,30.94-4.41C1423.06,1042.33,1427,1033.11,1427.14,1020Zm-67,28.71c-6.74,7.23-7,9.29-.34,15.42,4.66,4.3,10,7.81,14.7,11.37a36.52,36.52,0,0,0,4.46-2.5c1.42-1.12,3.67-2.49,3.69-3.78,0-1.72-1.35-4.45-2.81-5C1371.89,1060.9,1366.05,1055.05,1360.16,1048.69ZM1002.63,732.07c-5.06,1.15-10.65.74-12.89,3.29-4.65,5.3-4.55,12.27-.21,19.28,2.37,0,5.64.59,8.52-.21,1.83-.51,4.17-2.95,4.37-4.75C1003,744.48,1002.63,739.16,1002.63,732.07ZM627.41,1027.26c-6.64,3.77-12.72,6.43-17.86,10.33-6.48,4.94-10.43,13-9.13,16.57,4.55-5.61,12.92-2.82,17.51-9C621.86,1039.81,628.51,1036.23,627.41,1027.26ZM962.82,742.05c0-1-.07-2,0-3,.28-3.77-.14-7.54-4.41-8.5-4.5-1-7.17.71-9.68,5.47-2,3.87.36,5.66.59,8.34.4,4.57,4.49,8.38,8.47,8.07,5.54-.44,5.09-4.55,5-8.39C962.8,743.38,962.81,742.72,962.82,742.05ZM988.17,791c0,8.35.48,8.92,7.32,8.9,5.88,0,9.1-4,9-11.11,0-5.4-1.34-6.36-8.55-6.35C989,782.44,988.16,783.35,988.17,791Zm33.33-36.65a4.93,4.93,0,0,0,.47-1.24c0-3.66.09-7.32.08-11,0-6.24-4.56-9.75-10.57-8.3-1.07,6.77-2.13,13.46-3.24,20.52Zm-39.14-2.54c0-4.26.77-8.31-.26-11.83-.77-2.62-3.66-4.86-6.08-6.61-.63-.44-4.06,1.31-4.48,2.61a47.09,47.09,0,0,0-2.34,12.14c-.32,6.38,3.31,8.14,9,4.88A19.21,19.21,0,0,1,982.36,751.8Zm50.39-21c-3.86,8.83-4.85,17,3.12,24,5.68-7.44,5.46-6.9,5.32-16.7C1041.09,731.19,1039.83,730,1032.75,730.75Zm-66.1,49.31c1.12,2.36,2.05,3.68,2.35,5.14s0,3.3.11,4.95c.2,4,4.94,8.63,7.65,7.59,4.17-1.62,6.73-12.79,3.61-16.08a4.56,4.56,0,0,0-2.64-1.53C974.29,780,970.84,780.06,966.65,780.06Zm55.63,19.49c6,.05,12.48-8.48,9.79-13.5-1.56-2.91-3.49-7.33-8.35-5.89-3.63,1.07-5.35,4-4.53,7.81S1021.16,795.43,1022.28,799.55Zm-60-6.87c1.17-6.95-3.29-13.86-9.76-14.65-1-.12-3.11,1.67-3,2.39.21,2,1.4,3.93,2,5.93C953.91,793.75,954.83,794.32,962.28,792.68Z" transform="translate(-201 -217)"/><path class="cls-1" d="M865.88,606.44c-1.5-.37-3.37-.32-3.67-1-2.9-6.36-5.14-13.05-8.36-19.24a38.67,38.67,0,0,1-4.24-18c-.08-6,.21-12.57-2.17-17.74-4.08-8.88-2.11-17.77-2-26.53.09-7.43,2.72-14.81,4.12-22.24.84-4.41.94-9,2.35-13.23,2.12-6.29,5.17-12.26,7.71-18.41,1-2.32,1.31-4.93,2.48-7.12,3.78-7.08,8-13.72,14.12-19.27,5.48-5,9.94-11.12,14.85-16.74a46.32,46.32,0,0,1,4.8-5.35c3.76-3.14,7.49-6.46,11.7-8.91,7.35-4.29,14.81-8.57,22.68-11.73,7.06-2.83,14-6,22.18-6.2s16.29-2.84,24.51-3.77c5.59-.64,11.33.07,17-.29,4-.24,7.86-1.93,11.75-1.82,13.12.36,26.43.08,39.26,2.33,8.24,1.44,17.25,2.15,24.62,7.87,3.16,2.46,8.06,2.55,11.71,4.55a174.91,174.91,0,0,1,15.93,10.28c6,4.23,12.1,8.49,17.81,13.16,7.75,6.34,12.67,14.92,18,23.25,3.81,5.91,8.57,11.22,11.28,17.84,1.14,2.77,2.58,5.53,3.1,8.43,1.29,7.17,3.2,14.29,4.87,21.26,3.85,16.15,2.21,32.27,1.32,48.13-.52,9.23-1.21,18.64-1.92,28a83.39,83.39,0,0,1-2,11.8c-2.18,9.74-6.13,18.31-16,22.57-.81.35-1.91.05-3.12.05-.14-1.2-.3-2.15-.36-3.11-.69-11.6-1.17-23.22-2.16-34.79-.26-3.05-1.89-6.05-3.27-8.88-.31-.63-2.25-.46-3.92-.75-.75,7.49-.4,14.72-2.37,21.24-3.13,10.34-1,20.66-1.64,30.95-.41,6.63,4,11.88,10.11,14.18a129.52,129.52,0,0,1,15.68,7.16c3.08,1.65,3.58,7.59,1.46,10.88-.26.39-.72.88-.63,1.23,1.56,6.64-4.14,9.21-7.21,13.37-5.82,7.89-14,12.64-22.38,16.73-5.25,2.54-11.27,3.42-16.85,5.33a31.19,31.19,0,0,0-8.4,4c-4.71,3.49-10.24,5.32-13.32,11.73-3.15,6.57-8.85,12.54-14.77,17a51.28,51.28,0,0,1-25.21,10.57c-7.7.94-15.32.84-22.94,1.54a15.15,15.15,0,0,0-4.14,1.47c-2.44-.6-4.37-1.37-6.33-1.48-4-.21-8,.13-12-.11-9.12-.54-18.47-.21-27.27-2.22-12.42-2.85-23.87-8.68-31.28-19.67-4.3-6.38-8.3-12.9-14.13-18a33.07,33.07,0,0,0-8-4.89c-5.15-2.34-10.42-4.44-15.73-6.39-6.42-2.37-13.05-4.19-19.34-6.83-3.2-1.34-5.75-4.16-8.79-6-6.41-3.8-9.52-10.27-13.05-16.25-3.92-6.68,2-18.92,9.77-21.44,5.28-1.7,10.29-4.14,13.88-8.45a11.91,11.91,0,0,0,2.66-6.93c.21-18.83,0-37.66.21-56.49.08-6.16,0-12.78,2.23-18.32,2-5.15,2.83-10.83,7.42-15.55,4.11-4.24,5-11.68,7.13-17.75,2.65-7.45,4.93-15.05,7.85-22.39,2-5,4.94-9.52,7.08-14.42.54-1.22-.37-3.07-.62-4.63a25.47,25.47,0,0,0-3.36,1.76c-3.47,2.53-7.54,4.62-10.16,7.87a65.14,65.14,0,0,0-11.09,20.69c-2.18,6.53-6.17,12.43-9.19,18.69-2,4.22-3.48,8.73-5.69,12.83-4.2,7.78-4.62,16.07-4.35,24.6.21,6.66-.22,13.34.13,20,.22,4.08,2.1,8.15,2,12.17C867.82,587.77,866.72,596.78,865.88,606.44Zm235.65-2.3c-.77-5.11-1.5-10.38-2.36-15.62s-1.85-10.6-2.84-15.88c-.08-.4-.76-.64-1-1-2.32-3.9-4.79-7.73-6.87-11.75-5.47-10.6-15.56-13.69-26-15.69-5.56-1.07-10.8,1.25-15.9,3.81-8.86,4.45-18.14,7.89-23.4,17.41-3.46,6.26-7.4,12.37-5.25,19.65,1.64,5.6,4.74,10.78,7.28,16.11,1.59,3.33,2.78,7.06,5.13,9.78a138.9,138.9,0,0,0,15.21,15.28c6.69,5.67,14.2,10.51,23.5,9.52a40.15,40.15,0,0,0,12.91-4.07C1093.29,626.16,1100.57,617.53,1101.53,604.14Zm-204.09-.8c.73,2.91,1.62,7.23,2.9,11.44,2,6.53,4.13,12.83,11,16.39a29.63,29.63,0,0,0,19.86,2.47c5.32-1.07,10.39-4,15.23-6.73,5.14-2.9,10.4-6,14.65-10,4.88-4.59,8.76-10.26,13-15.53,5.19-6.45,5.41-14.61,7.5-22.13-3.82-3.76-1.34-9-3.78-13.78-5.19-10.08-18.51-20.81-30.14-21.57-12.11-.8-22.45,2.53-32.14,9.93s-11.71,18.17-15,28.38C898.55,588.39,898.55,595.18,897.44,603.34ZM1019,677.19c0-6,.76-11.31-.18-16.26-1.33-7-4.35-13.64-5.84-20.61-1.82-8.55-2.87-17.22-6.68-25.27-2-4.28-5.65-5.9-9.77-3.6a18.88,18.88,0,0,0-9.06,10c-3.13,8.29-6.71,16.42-9.59,24.79-1.38,4-.75,8.83-2.55,12.55-3.22,6.66-.76,13.13-1.6,20.55,6.31-2.34,11.61-4.64,17.12-6.21a20.29,20.29,0,0,1,8.78-.16C1006,674.06,1012.19,675.66,1019,677.19Z" transform="translate(-201 -217)"/><path class="cls-1" d="M511.8,480c1.34,3.14,2.07,5.53,3.31,7.61,4.21,7.05,8.47,14.08,13,20.95s9,14.14,14.27,20.53c7.47,9,15.69,17.38,23.6,26s16.19,17.18,23.83,26.16c5.27,6.2,9.73,13.1,14.57,19.68a18,18,0,0,0,1.6,1.78c10.68,11.2,21.29,22.46,32.07,33.57,8.41,8.67,18.24,16.28,25.27,25.93,10.85,14.9,25.42,25.95,37.43,39.58a70.37,70.37,0,0,0,20.53,16.08c2.35,1.21,3.43,4.83,5.77,6.11,8.22,4.46,15.28,10.26,22.16,16.53,6,5.43,12.57,10.16,19.07,15,4.72,3.49,9.87,6.41,14.58,9.92,4.54,3.39,8.72,7.26,13.13,10.83q9.18,7.41,18.47,14.67c6.45,5.06,13,10,19.42,15.08,6.79,5.36,13.31,11.09,20.31,16.16,6.07,4.39,12.74,8,19,12.13,5.73,3.82,11.13,8.13,16.89,11.89s12.08,7.29,18.1,11c3.4,2.08,6.71,4.3,10.08,6.44,1.84,1.18,3.68,2.37,5.59,3.45,8.17,4.62,16.14,9.69,24.61,13.67,10.53,4.95,21.48,9,32.24,13.41.58.23,1.42.44,1.61.89,1.93,4.44,6.72,3.77,10.08,5.56,5.36,2.86,11.06,5.08,16.67,7.44,7.84,3.31,15.75,6.44,23.57,9.76,5.85,2.49,11.61,5.19,17.43,7.73a60.7,60.7,0,0,0,7.08,2.71c5.54,1.62,11.2,2.84,16.68,4.63,4.24,1.38,8.2,3.61,12.43,5,6.08,2.07,12.31,3.68,18.43,5.65,6.36,2,12.59,4.52,19,6.37,6.11,1.77,12.39,2.92,18.56,4.44,2.45.61,4.84,1.42,7.23,2.22,8.19,2.73,16.34,5.61,24.58,8.21,3.63,1.15,7.47,1.64,11.16,2.62a179.15,179.15,0,0,0,22.69,4.47,126.34,126.34,0,0,1,12.64,2c3.19.76,5.94,3.32,9.31,5.33-7.75,3.9-14.52,7.65-21.58,10.74-4.08,1.79-8.91,1.94-12.9,3.86-6.72,3.23-13.68,2-20.42,1.66s-13.42-2.51-20.13-3.88a91.83,91.83,0,0,1-9.81-2.07c-5.72-1.85-11.31-4.13-17-6.11-4.77-1.67-9.68-2.94-14.36-4.82-5.68-2.27-11.16-5-16.76-7.49-2.15-.94-4.38-1.67-6.6-2.45-4.74-1.67-9.53-3.23-14.23-5-1.42-.53-2.53-1.89-4-2.4-6.25-2.25-12.67-4.07-18.82-6.56-3.67-1.49-6.85-4.17-10.45-5.88-3.86-1.83-8-3-11.94-4.72-10.11-4.39-20.15-9-30.23-13.39-4.49-2-9.08-3.74-13.54-5.79-6.58-3-13.09-6.2-19.63-9.29-5.72-2.7-11.52-5.25-17.18-8.08-8.31-4.16-16.51-8.54-24.8-12.75-8.81-4.48-17.83-8.6-26.47-13.4-6.43-3.58-12.45-7.94-18.57-12.07s-12.33-8.61-18.57-12.81c-8-5.4-16.14-10.62-24.14-16a26.48,26.48,0,0,1-5.43-4.8,49.69,49.69,0,0,0-17.16-12.82c-4.22-2-8.93-3-13.42-4.44-.3.55-.59,1.1-.88,1.65,2.1,2.31,4,4.79,6.34,6.88,7.55,6.9,15.11,13.8,22.92,20.4,3.58,3,7.76,5.33,11.65,8,.79.53,1.52,1.16,2.3,1.71,5.32,3.79,10.73,7.46,16,11.38,2.39,1.8,4.18,4.45,6.66,6.06,7.31,4.72,14.85,9.08,22.25,13.66,5.91,3.65,11.63,7.62,17.67,11.05,6.23,3.54,12.75,6.58,19.13,9.85,2.91,1.49,5.76,3.08,8.69,4.52,5.16,2.52,10.38,4.92,15.53,7.45,7.23,3.55,14.41,7.19,21.63,10.76,6.58,3.25,12.9,7.68,19.86,9.28,6.13,1.41,11.29,4.08,16.77,6.62,9.61,4.46,19.39,8.55,29.24,12.44,8.55,3.37,17.32,6.16,25.91,9.4,3.46,1.31,6.68,3.23,10.09,4.68,4.92,2.09,10,3.9,14.86,6,6,2.59,11.81,5.45,17.77,8,2.56,1.12,5.33,1.77,7.93,2.81,6.37,2.55,12.64,5.34,19,7.77,8.53,3.24,17.11,6.35,25.75,9.27,7.21,2.44,14.53,4.55,21.81,6.78,5,1.52,14,13.55,14,19.91-4.72-.75-9.3-1.49-13.88-2.2-.82-.13-1.66-.14-2.48-.24-6.06-.72-12.24-.93-18.14-2.3-6.9-1.61-13.51-4.41-20.34-6.36-3.7-1.05-7.61-1.4-11.42-2.06-4.55-.79-9.18-1.27-13.63-2.43-7.11-1.84-14.09-4.17-21.15-6.21-2.58-.74-5.24-1.22-7.86-1.84-3.85-.89-7.78-1.56-11.53-2.76-5.56-1.79-11-4-16.49-5.95-4.86-1.69-9.8-3.13-14.68-4.78-4.17-1.4-8.33-2.85-12.43-4.43-9-3.48-18-6.84-26.87-10.66-5.53-2.39-10.65-5.72-16.12-8.28-5.07-2.37-10.36-4.26-15.54-6.38-5.75-2.36-11.51-4.66-17.21-7.12-4.23-1.83-8.35-3.92-12.54-5.83-5.24-2.38-10.58-4.53-15.73-7.08-6.27-3.1-12.42-6.46-18.58-9.79s-12.26-6.78-18.42-10.12c-7.41-4-14.94-7.81-22.25-12-4.19-2.41-8-5.44-12-8.19-2-1.4-4.06-2.81-6.11-4.19-4.08-2.75-8.12-5.55-12.27-8.17-1.16-.74-2.83-.67-4-1.41-6.13-4-12.13-8.11-18.25-12.09-8-5.2-16.07-10.24-24-15.47-4.73-3.1-9.46-6.24-14-9.68-7.66-5.87-15.31-11.78-22.65-18-7.6-6.49-14.73-13.53-22.27-20.1-3-2.61-6.72-4.38-9.77-6.94-3.54-3-6.34-7-10.12-9.53-7.79-5.3-13.23-13.41-21.74-17.81-1.32-.68-2.07-2.38-3.28-3.34-3.18-2.53-6.7-4.69-9.65-7.45-2-1.87-3-4.73-4.92-6.77-4.5-4.86-9.21-9.54-13.91-14.22-6-5.93-12.33-11.47-17.87-17.75S630.13,721.4,625,714.66c-.28-.37-.85-.51-1.13-.86q-8-10-15.91-20c-2.92-3.69-6-7.26-8.67-11.12-4.06-5.92-7.82-12.06-11.7-18.1-.77-1.2-1.49-2.43-2.28-3.62-4.25-6.4-8.42-12.86-12.83-19.15-2.35-3.35-5.45-6.19-7.65-9.62-5.82-9.07-11.63-18.18-16.89-27.58-5.76-10.29-11-20.88-16.28-31.42-4.46-8.89-8.62-17.87-11-27.64-1-4.25-3.66-8.1-5.23-12.25a89.23,89.23,0,0,1-3.22-10.79c-1.42-6-3.13-12-3.78-18.07A134.26,134.26,0,0,1,508.2,485C508.25,483.58,510.09,482.26,511.8,480Z" transform="translate(-201 -217)"/><path class="cls-1" d="M1495.74,490.12c-.21,5.18,2.14,10.25-1.43,15.61-1.82,2.73-2,6.61-2.7,10-.86,4.24-1.19,8.61-2.29,12.78a119.94,119.94,0,0,1-4.5,12.8c-1.21,3.1-2.79,6-4.09,9.12q-4.17,9.87-8.21,19.78c-1.65,4-2.47,8.65-5,12-4.75,6.28-5.9,14.45-12,20.14-3.2,3-4.06,8.4-6.23,12.59-3.3,6.38-6.89,12.61-10.23,19-2.55,4.87-4.72,10-7.41,14.76-2.89,5.16-6.19,10.1-9.32,15.13q-6.25,10.07-12.54,20.12a8.15,8.15,0,0,1-1.22,2c-7.63,6.52-12.28,15.38-18,23.38-8.37,11.78-19,21.3-29.26,31.28-2,1.93-3.72,4.1-5.75,6-7,6.4-14.31,12.54-21.2,19.09-6.09,5.78-11,13.17-17.86,17.66-8.6,5.64-14.27,14-22,20.2-3.67,2.95-7.29,5.95-10.94,8.93-8.9,7.26-17.59,14.82-26.8,21.68-5.73,4.27-12.4,7.27-18.36,11.26-5.71,3.83-11,8.37-16.59,12.32-6.09,4.28-12.42,8.23-18.64,12.33-6,3.95-12,7.86-17.89,11.88-4.81,3.26-9.38,6.91-14.33,10-6.6,4.07-13.55,7.59-20.2,11.58-6.15,3.69-12,7.79-18.18,11.5-3.2,1.94-6.78,3.26-10,5.2-1.68,1-2.66,3.41-4.39,4.12-4.76,1.94-9.65,3.92-14.68,4.7-3,.47-6.46-1.1-9.61-2.06-4.42-1.35-8.84-2.79-13.11-4.56s-8.51-4.12-12.81-6.1c-.94-.44-2.11-.38-4.62-.78,4.53-3.33,7.83-6.21,11.54-8.39,7.07-4.16,14.36-7.94,21.58-11.85,5.84-3.16,11.8-6.12,17.52-9.47,4.69-2.75,9.1-6,13.66-8.93,3.34-2.17,6.66-4.38,10.11-6.37,4.44-2.55,9.12-4.68,13.46-7.37,4.56-2.83,8.45-7.15,13.32-8.95,8-3,11.42-10.44,17.39-15.3,2.2-1.8,3.14-5.14,4.66-7.77l-1.2-1.71c-4.06,1.44-8.25,2.59-12.13,4.4a128.78,128.78,0,0,0-12.72,7.1c-3.42,2.08-6.54,4.64-10,6.72-5.76,3.53-11.7,6.77-17.47,10.29-2,1.21-3.56,3.13-5.57,4.32-3.78,2.24-7.7,4.24-11.62,6.24-6.08,3.11-12.31,5.94-18.29,9.24-5.29,2.93-10.44,6.17-15.43,9.58-7.06,4.82-15.33,7.46-22,13.19-3.16,2.72-8.64,2.6-12.19,5-6.29,4.33-10.67,0-15.67-2.15-3.14-1.38-6.4-2.51-9.4-4.15-2.83-1.54-5.37-3.61-9.14-6.2,4.07-1.8,7.29-3.11,10.4-4.63,9.89-4.81,19.68-9.85,29.65-14.52,10.19-4.78,21.16-8.23,30.63-14.12,8.32-5.17,18.22-7.18,25.61-14.4,4.26-4.16,11-5.67,16.14-9.07,7.93-5.24,15.34-11.26,23.2-16.6,6-4.1,12.64-7.37,18.61-11.55,6.26-4.4,12-9.51,18.1-14.19,2.33-1.81,5-3.23,7.36-5,5-3.61,9.94-7.35,15-10.94,1.41-1,3.18-1.51,4.57-2.54,6.42-4.77,12.75-9.65,19.12-14.48,5.48-4.14,11.33-7.89,16.38-12.51s11.13-8,17-11.59a73,73,0,0,0,9.31-7.08c5.25-4.49,10.27-9.26,15.55-13.71,3.51-3,7.47-5.42,11-8.41,5.75-4.94,10.69-11.11,17-15,11-6.76,18.58-16.87,27.52-25.6s17.79-17.69,25.5-27.48c5.35-6.79,13.18-12.1,16.69-19.22,3.92-8,12.94-11.43,14.9-20.24.1-.45,1.15-.61,1.56-1.07q10.47-11.78,20.88-23.59c2.6-3,5.08-6.06,7.65-9.06,5.28-6.18,10.61-12.3,15.85-18.51,6.72-8,13.5-15.93,20-24.09,4-5,7.44-10.26,11.1-15.43,3-4.29,5.95-8.68,9.07-12.9,1.49-2,3.35-3.75,5-5.61Z" transform="translate(-201 -217)"/><path class="cls-1" d="M1102.46,711.78c-.87,7.66-1.56,15.22-2.62,22.73-1.43,10.21-5.89,19.77-5.16,30.53a69.12,69.12,0,0,1-2.17,22.19c-1.51,5.61-5.46,10.62-8.63,15.71-4.1,6.61-8.2,13.27-12.88,19.47a77.69,77.69,0,0,1-11.55,12,140.45,140.45,0,0,1-16.79,12.48c-2.81,1.76-6.59,2.31-10,2.63-4.63.42-9.33-.08-14,.14-11,.54-22,2-32.93,1.71-8.28-.19-16.56-2.13-24.73-3.81-5.4-1.1-11.24-2.14-15.72-5-4-2.59-9.42-4.07-11.32-9.85-1-3.1-4-5.56-6.08-8.33-4-5.35-8-10.76-12.06-16-3.74-4.82-7.88-9.33-11.45-14.28s-5.55-10.62-7-17c-3.21-14.3-.61-28.5-1.77-42.66-.5-6.16-1.45-12.3-1.64-18.47-.29-9.07,2-10.71,9.73-6.41A40.66,40.66,0,0,1,916,719.87c3.82,4.94,7.15,10.1,8.51,17,1.3,6.57,1.29,12.93,1.41,19.36a47.75,47.75,0,0,0,5.8,21.5,80.92,80.92,0,0,0,12.15,16.53c2.35,2.56,6.27,3.85,9.68,5.25,5.63,2.33,11.42,4.29,17.15,6.4a3.85,3.85,0,0,0,.49.08c15.94,2.85,32.06,2.87,48.09,2,6.08-.33,11.89-4.13,18-5.57,10.06-2.36,14.76-10.66,20-17.94,3-4.19,4.08-10,5.25-15.19,1.73-7.66,2.09-15.68,4.25-23.19,2.74-9.5,5-19.37,12.7-26.76,4.37-4.17,9.92-4.18,15-5.9C1096.43,712.74,1098.59,712.55,1102.46,711.78Z" transform="translate(-201 -217)"/><path class="cls-1" d="M1200.79,1008.14c8.22-3.66,15-6.71,21.8-9.72,9.46-4.2,16.32-11.73,23.25-18.93,3.74-3.89,6.06-9.2,8.78-14a127.66,127.66,0,0,0,6.77-13.29c1.95-4.64,3.22-9.57,4.94-14.32,4.23-11.67,12.08-20.27,22.94-26.07a72.71,72.71,0,0,1,11.5-4.76c1.32-.43,3.11.42,4.64.84.73.19,1.4,1.15,2,1.09,7-.69,12.72,3.31,16.7,7.46s9.77,8.65,9.13,16.54c-14.3.91-23.07,10.45-31.09,20.25-6.47,7.89-11.37,17-16.17,26.14-4.17,7.95-10.14,15-15.52,22.27a146.41,146.41,0,0,1-9.61,11.63c-2,2.21-4.52,3.93-6.73,6-3.46,3.17-4.92,7.08-5.45,11.84-.83,7.43-2.86,14.73-3.85,22.15-1.26,9.46-6,17.58-11.32,24.72-4.45,5.92-9.41,12.19-16.94,15.43-6.23,2.68-12,6.41-18,9.57-4.2,2.21-8.49,4.25-12.74,6.35a4,4,0,0,1-1.39.44c-10.11.7-20.35,2.62-30.3,1.62-6.54-.66-12.61-5.63-19-8.48-7.34-3.29-7.25-9.62-7.06-16.15.16-5.26,3.29-9.35,8.53-9.56,3.18-.13,6.47.94,9.63,1.77,8.66,2.28,17.18,6.63,26.32,4.38,5.41-1.34,11.19-2.49,15.52-7.18,4.59-5,10.21-8.95,15-13.73,3-3,6.17-6.1,6.54-11,.2-2.69,1.85-5.25,2.27-8,1.59-10.23-3.1-18.48-8.35-26.69C1201.81,1014,1201.46,1010.29,1200.79,1008.14Z" transform="translate(-201 -217)"/><path class="cls-1" d="M652.62,912.44c1-2.79,1.43-6.68,3.49-9.32,5.08-6.52,11.25-12.72,19.3-14.67a30.19,30.19,0,0,1,20.21,1.72c8.18,3.88,11.58,10.81,13.72,19,1.79,6.91,5.49,13.54,6.09,20.49s4.61,12.37,6.68,18.59a6.89,6.89,0,0,0,1.49,2.22c5.11,5.57,9.77,11.68,15.48,16.55,9,7.66,18.11,15.31,29.57,19.4a43.33,43.33,0,0,1,10.05,5.64c1.75,1.22,3.25,2.84,1.29,5.74-1.69,2.5-2.17,5.86-3.08,8.87-1.35,4.51-2.72,9-3.84,13.58a10.82,10.82,0,0,0-.15,5.44c1.84,6.15,2.65,13.28,6.39,18,5.8,7.39,11.05,15.33,19.93,20.52,10.12,5.91,19.59,3.92,29.83,2.75,6.83-.77,14.35-3.1,20.29,3.67,4.16,4.74,4.44,13.09-.55,17.25-4.45,3.72-8.85,8.67-14.06,10-9.44,2.47-19.26,5.74-29.37,1.23-4.38-2-9.59-2-14-3.86a73.32,73.32,0,0,1-14.27-7.83A165.32,165.32,0,0,1,758.71,1073a60.5,60.5,0,0,1-14-20.38,186.14,186.14,0,0,1-6.77-17.72c-.81-2.59-.35-5.63-.21-8.46.55-11.72-2.87-21.44-12.59-28.9a90.31,90.31,0,0,1-14-14.07,65,65,0,0,1-8.41-13.36c-3.27-6.74-5.61-13.93-8.83-20.69a60.9,60.9,0,0,0-7.15-11.15c-4.74-6.06-9.11-12.73-15-17.45C666.89,917,660.12,915.58,652.62,912.44Z" transform="translate(-201 -217)"/><path class="cls-1" d="M972.66,982c-4.48,1.9-8,3.42-11.5,4.85-4.3,1.75-8.64,3.38-12.94,5.14-2.89,1.17-5.63,2.89-8.62,3.62-4.34,1.07-8.93,1.16-13.28,2.24-3.85,1-7.49,2.8-11.29,4a91.32,91.32,0,0,1-9.52,2.52c-4.17.85-8.44,1.23-12.57,2.23s-8.27,2.63-12.46,3.78c-3.38.93-6.82,1.65-10.27,2.28-8.87,1.61-17.78,3-26.62,4.71-5.73,1.13-11.3,3.49-17.06,4-12.74,1.22-25.55,1.65-38.28,2.4-2.27-5.06.11-8.84,2.5-11.58a44.63,44.63,0,0,1,20.67-13.15A210.23,210.23,0,0,1,835.21,993c6.12-1.18,11.79-4.54,17.83-6.36s12.43-2.76,18.57-4.43c6.32-1.72,12.5-3.95,18.79-5.77,3.72-1.08,7.58-1.66,11.29-2.74,5.15-1.5,10.22-3.31,15.34-4.9,4-1.25,8.25-2,12.09-3.62,7.43-3.17,12.24,2.86,18,4.94C955.37,973,963.1,977.42,972.66,982Z" transform="translate(-201 -217)"/><path class="cls-1" d="M757,965.91c2-5.19,5.1-5.15,8.52-5.54,5.31-.61,10.5-2.3,15.74-3.53.49-.11,1-.24,1.46-.3,5.73-.75,11.49-1.33,17.2-2.27,7.4-1.22,14.78-2.64,22.14-4.11,7.11-1.42,14.28-2.68,21.27-4.58,8.77-2.39,17.37-5.36,26.05-8.05,2.95-.92,5.89-2.23,8.9-2.46,1.73-.14,3.69,1.38,5.39,2.4,9.38,5.64,18.71,11.35,28.06,17-.21.54-.42,1.08-.64,1.63-3.39.93-6.84,1.72-10.18,2.82-3.88,1.28-7.66,2.89-11.53,4.24-2.67.93-5.39,1.72-8.11,2.46-7.76,2.11-15.58,4-23.27,6.33-3,.92-5.59,3.09-8.55,4.19a63.8,63.8,0,0,1-9.6,2.48c-7.22,1.45-14.78,1.9-21.62,4.37-6,2.17-11.9,1.74-17.85,1.72-7.9,0-15.37-2.6-22.27-6.16C770.79,974.83,764,970.16,757,965.91Z" transform="translate(-201 -217)"/><path class="cls-1" d="M711.15,1019.32c-9.47,0-18.29-.26-27.08.06-15.05.55-30.09,1.55-45.13,2.17-7.73.32-12.61-4.78-16-10.6-4.09-7-7.16-14.67-10.23-22.24-.92-2.28-.36-5.17-.5-8.49H630c6.66,0,13.34.26,20-.07,6-.3,11.92-2.09,17.8-1.75,11.23.64,21.75,3.77,30.58,11.46A90.07,90.07,0,0,1,706,996.7C712.23,1003.52,711.1,1010.94,711.15,1019.32Z" transform="translate(-201 -217)"/><path class="cls-1" d="M1270.73,1035.55c-2.22-6.58,3-11.13,5.51-16.22a37.59,37.59,0,0,1,10.15-12.27c3.22-2.6,7.81-3.61,11.91-4.95,1.65-.54,3.64,0,5.47-.1,17.22-.87,34.43-2,51.66-2.48,4-.12,8.16,1.67,12.1,3a4.52,4.52,0,0,1,2.35,3.44c.06,6.07,1.23,12.29-3.17,17.75-2.48,3.06-3.73,7.15-6.28,10.14-1.79,2.11-5,2.92-7.29,4.71-4.71,3.7-10.28,3-15.23,2.23-18.6-3-37.3-2-56-2.43C1278.38,1038.29,1274.85,1036.63,1270.73,1035.55Z" transform="translate(-201 -217)"/><path class="cls-1" d="M608.41,971.42c-3.28,4.71-5.71,8.15-8.06,11.65a2.48,2.48,0,0,0-.45,1.84c1.63,4.88,2.86,10,5.17,14.52,4.86,9.6,3.86,21.46-3.13,29.36-4.54,5.15-14.88,7.55-21.05,4.68-5.36-2.49-11.14-4.54-15.69-8.11-3.36-2.64-5.35-7.27-7.4-11.3-3.16-6.21-3.43-13.09-2.69-19.83.95-8.66,4.44-16.7,11.29-22,3.77-2.93,9.42-3.91,14.39-4.69a52.3,52.3,0,0,1,14.94,0C600,968.1,604,970,608.41,971.42Z" transform="translate(-201 -217)"/><path class="cls-1" d="M1427.14,1020c-.14,13.13-4.08,22.35-12.38,29.43-7.76,6.63-21.61,9.09-30.94,4.41-6.17-3.1-12-15.09-9.88-21.7,1.89-6,4.91-11.58,7.61-17.26,1.61-3.36,3.9-6.43,5.18-9.89.39-1.06-1.2-3.49-2.5-4.41-2.81-2-6.09-3.24-9-5a3.57,3.57,0,0,1-1.24-2.75c0-.56,1.21-1.49,2-1.58,6.92-.82,13.95-2.58,20.75-1.94,8.55.8,17.58,3.51,22.91,10.5C1424.3,1005.94,1428.72,1013.34,1427.14,1020Z" transform="translate(-201 -217)"/><path class="cls-1" d="M1360.16,1048.69c5.89,6.36,11.73,12.21,19.7,15.47,1.46.59,2.84,3.32,2.81,5,0,1.29-2.27,2.66-3.69,3.78a36.52,36.52,0,0,1-4.46,2.5c-4.66-3.56-10-7.07-14.7-11.37C1353.19,1058,1353.42,1055.92,1360.16,1048.69Z" transform="translate(-201 -217)"/><path class="cls-1" d="M1002.63,732.07c0,7.09.38,12.41-.21,17.61-.2,1.8-2.54,4.24-4.37,4.75-2.88.8-6.15.21-8.52.21-4.34-7-4.44-14,.21-19.28C992,732.81,997.57,733.22,1002.63,732.07Z" transform="translate(-201 -217)"/><path class="cls-1" d="M627.41,1027.26c1.1,9-5.55,12.55-9.48,17.86-4.59,6.22-13,3.43-17.51,9-1.3-3.61,2.65-11.63,9.13-16.57C614.69,1033.69,620.77,1031,627.41,1027.26Z" transform="translate(-201 -217)"/><path class="cls-1" d="M962.81,742.05c0,.67,0,1.33,0,2,.08,3.84.53,8-5,8.39-4,.31-8.07-3.5-8.47-8.07-.23-2.68-2.64-4.47-.59-8.34,2.51-4.76,5.18-6.49,9.68-5.47,4.27,1,4.69,4.73,4.41,8.5C962.75,740.05,962.82,741.05,962.81,742.05Z" transform="translate(-201 -217)"/><path class="cls-1" d="M988.17,791c0-7.64.82-8.55,7.81-8.56,7.21,0,8.5,1,8.55,6.35.06,7.12-3.16,11.09-9,11.11C988.65,799.91,988.18,799.34,988.17,791Z" transform="translate(-201 -217)"/><path class="cls-1" d="M1021.5,754.34h-13.26c1.11-7.06,2.17-13.75,3.24-20.52,6-1.45,10.56,2.06,10.57,8.3,0,3.66,0,7.32-.08,11A4.93,4.93,0,0,1,1021.5,754.34Z" transform="translate(-201 -217)"/><path class="cls-1" d="M982.36,751.8a19.21,19.21,0,0,0-4.12,1.19c-5.73,3.26-9.36,1.5-9-4.88A47.09,47.09,0,0,1,971.54,736c.42-1.3,3.85-3.05,4.48-2.61,2.42,1.75,5.31,4,6.08,6.61C983.13,743.49,982.36,747.54,982.36,751.8Z" transform="translate(-201 -217)"/><path class="cls-1" d="M1032.75,730.75c7.08-.71,8.34.44,8.44,7.33.14,9.8.36,9.26-5.32,16.7C1027.9,747.72,1028.89,739.58,1032.75,730.75Z" transform="translate(-201 -217)"/><path class="cls-1" d="M966.65,780.06c4.19,0,7.64-.11,11.08.07a4.56,4.56,0,0,1,2.64,1.53c3.12,3.29.56,14.46-3.61,16.08-2.71,1-7.45-3.61-7.65-7.59-.09-1.65.23-3.36-.11-4.95S967.77,782.42,966.65,780.06Z" transform="translate(-201 -217)"/><path class="cls-1" d="M1022.28,799.55c-1.12-4.12-2.29-7.81-3.09-11.58s.9-6.74,4.53-7.81c4.86-1.44,6.79,3,8.35,5.89C1034.76,791.07,1028.29,799.6,1022.28,799.55Z" transform="translate(-201 -217)"/><path class="cls-1" d="M962.28,792.68c-7.45,1.64-8.37,1.07-10.75-6.33-.64-2-1.83-3.9-2-5.93-.08-.72,2.07-2.51,3-2.39C959,778.82,963.45,785.73,962.28,792.68Z" transform="translate(-201 -217)"/><path d="M1101.53,604.14c-1,13.39-8.24,22-19.6,27.51a40.15,40.15,0,0,1-12.91,4.07c-9.3,1-16.81-3.85-23.5-9.52a138.9,138.9,0,0,1-15.21-15.28c-2.35-2.72-3.54-6.45-5.13-9.78-2.54-5.33-5.64-10.51-7.28-16.11-2.15-7.28,1.79-13.39,5.25-19.65,5.26-9.52,14.54-13,23.4-17.41,5.1-2.56,10.34-4.88,15.9-3.81,10.45,2,20.54,5.09,26,15.69,2.08,4,4.55,7.85,6.87,11.75.24.4.92.64,1,1,1,5.28,2,10.57,2.84,15.88S1100.76,599,1101.53,604.14Z" transform="translate(-201 -217)"/><path d="M897.44,603.34c1.11-8.16,1.11-15,3.09-21.12,3.27-10.21,5.4-21.05,15-28.38s20-10.73,32.14-9.93c11.63.76,25,11.49,30.14,21.57,2.44,4.74,0,10,3.78,13.78-2.09,7.52-2.31,15.68-7.5,22.13-4.23,5.27-8.11,10.94-13,15.53-4.25,4-9.51,7.09-14.65,10-4.84,2.72-9.91,5.66-15.23,6.73a29.63,29.63,0,0,1-19.86-2.47c-6.87-3.56-9-9.86-11-16.39C899.06,610.57,898.17,606.25,897.44,603.34Z" transform="translate(-201 -217)"/><path d="M1019,677.19c-6.81-1.53-13-3.13-19.37-4.24a20.29,20.29,0,0,0-8.78.16c-5.51,1.57-10.81,3.87-17.12,6.21.84-7.42-1.62-13.89,1.6-20.55,1.8-3.72,1.17-8.54,2.55-12.55,2.88-8.37,6.46-16.5,9.59-24.79a18.88,18.88,0,0,1,9.06-10c4.12-2.3,7.74-.68,9.77,3.6,3.81,8.05,4.86,16.72,6.68,25.27,1.49,7,4.51,13.62,5.84,20.61C1019.76,665.88,1019,671.16,1019,677.19Z" transform="translate(-201 -217)"/></svg>