<svg id="Layer_1" data-name="Layer 1" xmlns="http://www.w3.org/2000/svg" viewBox="0 0 607.84 607.95"><defs><style>.cls-1{fill:#fff;}</style></defs><title>instagram</title><path class="cls-1" d="M-593,354c0-35-.27-70,.08-105,.3-29.73,2.92-59.21,12.8-87.59C-562.53,110.87-527.17,78.73-477,62c27.51-9.17,56.07-11.59,84.77-11.72q103-.48,206,0c29.54.15,58.92,2.65,87.25,12C-47,79.48-14.41,115.8,2.79,166.87c7.49,22.25,10.81,45.34,11,68.77q.75,102.47,1,205c0,25.64-.77,51.29-5.5,76.65-13.58,72.84-57.73,116.19-128.7,133.67-21.81,5.37-44.13,6.78-66.46,6.87q-103.47.38-207,0c-28.36-.14-56.57-2.56-83.87-11.18-52.69-16.64-86.73-52-104.27-103.91-8.63-25.52-11.5-52-11.8-78.73-.42-36.65-.1-73.32-.1-110Zm554-9.91c0-20,.23-40-.06-60-.4-28-1-55.85-5.85-83.6-7.72-44.45-36.78-81.21-86.19-89.79-27-4.68-54.26-6.39-81.57-6.65-47.15-.45-94.31-.35-141.46-.17-30,.12-59.85.67-89.57,5.94-39.87,7.07-77.25,33.12-87.51,79.57-5.66,25.63-7.37,51.78-7.66,77.92-.63,55.64-1,111.29-.55,166.94.22,28.08,1.13,56.2,8.32,83.77,10,38.32,32.49,64.76,70.83,76.14,25.56,7.59,52.23,9.07,78.63,9.57,53.3,1,106.63.58,159.95.48,29.47-.06,58.88-.66,88-6.16,43.83-8.26,79.1-37.17,87.61-85.43,5.25-29.76,6.58-59.91,7-90.07C-38.71,396.39-39,370.22-39,344.06Z" transform="translate(593.1 -50.05)"/><path class="cls-1" d="M-290.49,510.42c-81.44,1.63-156.62-66.09-156.92-156-.27-80.47,65.54-156.63,156.7-157.13C-201,196.78-133.8,271.74-133.94,354-134.08,436.49-201,511.61-290.49,510.42Zm-.24-258.68c-57.57,0-101.76,44.91-102.48,102.43s50.13,101.73,102.92,101c56.23-.79,102-45.43,102.07-101A101.85,101.85,0,0,0-290.73,251.75Z" transform="translate(593.1 -50.05)"/><path class="cls-1" d="M-127,227.36c-19.16.07-36.94-17.53-37-36.64-.08-19.41,17.68-37.2,37-37.12,19,.08,36.88,17.93,36.87,36.89S-108,227.29-127,227.36Z" transform="translate(593.1 -50.05)"/></svg>