<svg id="Layer_1" data-name="Layer 1" xmlns="http://www.w3.org/2000/svg" viewBox="0 0 623.21 508.37"><defs><style>.cls-1{fill:#fff;}</style></defs><title>twitter</title><path class="cls-1" d="M1005.19,439c-63.62-3.3-105.57-48.53-117.16-88.77,9.12.39,18.15,1.33,27.13,1s18.12-1.87,27.27-3.48c-62.64-19.47-96.27-61.25-100-126.91,17.94,7.85,36,14.13,57.21,14.32-27.81-20.2-45.77-45.58-53-77.89s-2.49-63.14,13.86-92.69C930,146.11,1017.6,191.09,1124.81,198.51c-.83-8.22-1.91-15.58-2.26-23-1.87-39.82,11.8-73.63,41-100.6,32.08-29.65,70.41-39.41,113-31.43a118.78,118.78,0,0,1,63.72,34.17c2.61,2.65,5,3.38,8.78,2.53a264.16,264.16,0,0,0,71.58-27.31c.87-.49,1.77-.93,2.68-1.34a6.6,6.6,0,0,1,1.68,0c-9.66,29-27.74,51.1-52.57,68.27,24.14-1.8,46.72-9.09,70.1-18.55-15.37,22.43-32.29,41.28-52.42,57.2a11.35,11.35,0,0,1-1.59,1.2c-8.41,4.49-9.88,11.48-9.67,20.67,1.1,49.13-8.92,96.24-27.22,141.74a374.51,374.51,0,0,1-57.53,97.7,352.25,352.25,0,0,1-67.4,63.48A342.82,342.82,0,0,1,1135.48,530a359.87,359.87,0,0,1-87.88,17.83c-36.24,2.77-72.31,1.33-107.91-6.2-30.06-6.35-59.13-15.91-86.53-30-11.47-5.91-22.75-12.19-33.91-19,33.47,2.32,66.29.3,98.47-8.9S979.21,460.08,1005.19,439Z" transform="translate(-819.24 -40.82)"/></svg>