<svg id="Layer_1" data-name="Layer 1" xmlns="http://www.w3.org/2000/svg" viewBox="0 0 228.72 114.56"><defs><style>.cls-1{fill:#00347f;}</style></defs><title>headtotail</title><path class="cls-1" d="M373.7,431.21c-3.47,3.93-7.45,8.36-11.32,12.88a5.53,5.53,0,0,0-1.38,3.07c-.45,11.24-12.06,15-19.85,13.31-8.72-1.94-12.76-5.95-13.82-15.57-.48-4.32-4.49-4.45-6-7.23-1.63-3-3.43-4.14-7.43-3.07-5.5,1.47-10.52-4.29-10.74-11.48s2.77-13.53,6.71-19.33,6.93-11.66,6.12-18.8c-.18-1.63-1-4-2.22-4.48s-3.92.63-4.5,1.79c-3.89,7.73-11.47,5-17.49,6.41-1,.25-2.59-.94-3.64-1.79-1.27-1-2.08-2.73-3.44-3.52s-3.68-1.64-4.82-1-1.46,2.93-2,4.56a6.06,6.06,0,0,0,0,2.48c1.15,8.07,2.33,16.14,2.72,24.37l-2.28-6.8c-13,3.16-25.18,7.86-35.32,16.8a62.2,62.2,0,0,0-8.95,9.86c-3.71,5.07-2.48,9.77,2.75,13.54,6.68,4.81,14.35,6.45,22.31,7,4,.28,8,0,12,0l-.19,1.72c-9.56-1.33-19.18-2.37-28.67-4.11-6.1-1.12-10-5.28-12.21-11.2a5.28,5.28,0,0,0-3.26-2.69c-8-2.08-12.06-4.33-17.79-10.56,2.29,7.69,7.85,11.94,12.43,16.9,1.58,1.71,3.49,3.13,4.92,4.95a3.52,3.52,0,0,1,.38,3.27c-.55.75-2.12.83-3.28,1-.4.07-.91-.35-1.33-.62-12.92-8.25-24.57-17.75-28.28-33.57a33.69,33.69,0,0,1,8.4-31.84c18.73-20.15,42.36-31.7,69-37.34,9-1.91,18.25-3.69,27.41-3.83,18.08-.29,35.23,4.41,51.89,11.48,14.08,6,26,14.44,35.26,26.6,7,9.2,9.52,19.41,6.68,30.09,8.18,5.08,16,9.87,23.71,14.77a9.85,9.85,0,0,1,3.59,3.39c1,2,2.28,4.69,1.59,6.3s-3.62,2.42-5.71,2.8a31.62,31.62,0,0,1-8,.08c-4-.3-7.59-.2-10.65-4.46-1.79-2.5-7.16-2.51-11-3.46S378.24,432.19,373.7,431.21Z" transform="translate(-192.86 -346.31)"/></svg>