<svg id="Layer_1" data-name="Layer 1" xmlns="http://www.w3.org/2000/svg" viewBox="0 0 623.27 508.36"><defs><style>.cls-1{fill:#2da7e0;}</style></defs><title>twitter</title><path class="cls-1" d="M876.15,895.08C812.57,891.67,770.62,846.43,759,806.2c9.12.4,18.15,1.33,27.13,1s18.12-1.87,27.26-3.48c-62.61-19.49-96.32-61.21-100.7-127.36,10,3.74,18.76,7.72,27.92,10.25s18.77,3.66,28.23,4.85c-56.27-47.5-68.64-104.09-38-171.68C801,602.08,888.59,647.12,995.81,654.49c-.83-8.2-1.91-15.57-2.26-23-1.87-39.82,11.8-73.63,41-100.6,32.08-29.66,70.41-39.42,113-31.44a118.79,118.79,0,0,1,63.73,34.17c2.61,2.65,5,3.38,8.78,2.53a264.64,264.64,0,0,0,71.58-27.31c1.12-.62,2.33-1.06,4.6-2.09-9.9,29.77-28,51.84-52.82,69,24.14-1.81,46.73-9.07,70.11-18.56-15.38,22.44-32.3,41.3-52.43,57.21a11.23,11.23,0,0,1-1.58,1.21c-8.42,4.49-9.88,11.48-9.67,20.67,1.09,49.13-8.92,96.25-27.22,141.75A374.47,374.47,0,0,1,1165,875.75a352,352,0,0,1-67.41,63.48,342.76,342.76,0,0,1-91.14,46.82,359.88,359.88,0,0,1-87.89,17.82c-36.23,2.77-72.3,1.33-107.9-6.19-30.06-6.36-59.14-15.92-86.54-30-11.47-5.91-22.75-12.19-34-19C759.22,954.34,821.37,937.37,876.15,895.08Z" transform="translate(-690.19 -496.82)"/></svg>